<?xml version="1.0" standalone="no"?>
<!DOCTYPE svg PUBLIC "-//W3C//DTD SVG 20010904//EN"
 "http://www.w3.org/TR/2001/REC-SVG-20010904/DTD/svg10.dtd">
<svg version="1.0" xmlns="http://www.w3.org/2000/svg"
 width="539.000000pt" height="569.000000pt" viewBox="0 0 539.000000 569.000000"
 preserveAspectRatio="xMidYMid meet">

<g transform="translate(0.000000,569.000000) scale(0.100000,-0.100000)"
fill="#000000" stroke="none">
<path d="M1125 5406 c-133 -26 -224 -80 -256 -150 -28 -63 -24 -85 29 -151 64
-79 365 -480 427 -570 218 -312 361 -543 476 -767 64 -127 74 -141 127 -179
31 -23 59 -44 62 -46 2 -2 -7 -14 -21 -26 -55 -48 -81 -134 -61 -202 7 -24 4
-41 -19 -87 -49 -97 -72 -201 -66 -293 11 -171 77 -296 247 -467 129 -128 110
-95 253 -437 l73 -175 100 -23 c114 -26 244 -42 397 -47 l107 -4 -30 35 c-68
77 -128 210 -179 401 l-29 110 41 18 c105 48 187 131 187 190 0 12 -27 79 -60
149 -57 121 -59 127 -44 151 14 21 15 37 5 137 -7 61 -21 165 -31 230 -26 153
-26 152 10 167 17 7 40 26 52 43 l21 29 19 -23 c39 -51 113 -175 133 -225 l21
-52 85 63 c46 35 87 61 90 57 3 -4 22 -65 43 -136 20 -71 39 -132 42 -135 7
-7 38 30 71 86 15 26 25 60 26 88 l2 47 45 -7 c54 -8 102 -39 173 -112 100
-103 156 -210 177 -335 9 -58 1 -225 -16 -327 l-5 -34 -47 46 c-49 47 -124 98
-202 137 l-45 22 46 -48 c96 -103 112 -121 162 -194 57 -83 96 -170 97 -213
l0 -28 -33 25 c-19 15 -36 26 -39 26 -3 0 6 -37 19 -81 12 -45 23 -93 22 -108
0 -25 -2 -23 -42 24 -78 94 -219 216 -233 202 -2 -2 7 -24 21 -48 40 -73 56
-130 58 -208 2 -65 5 -75 25 -89 18 -12 22 -12 20 -2 -2 9 11 16 37 21 21 3
41 12 43 18 4 13 22 15 22 2 0 -5 -17 -16 -37 -25 -31 -14 -33 -16 -11 -13 15
2 33 0 40 -4 9 -6 7 -9 -8 -9 -12 0 -24 -7 -28 -15 -3 -8 -17 -20 -31 -27 -14
-6 -25 -17 -25 -25 0 -7 -7 -13 -15 -13 -11 0 -15 -11 -15 -39 0 -33 -4 -40
-22 -44 -15 -3 -9 -5 17 -7 l40 -3 -45 -7 -45 -7 40 -2 c22 -1 47 -6 55 -12
11 -8 0 -9 -40 -5 -31 2 -44 1 -30 -3 25 -7 24 -7 -8 -14 -18 -4 -43 -1 -58 5
-18 9 -27 9 -32 1 -4 -6 -18 -13 -32 -16 -14 -3 22 -4 80 -1 189 8 428 58 628
130 121 43 384 173 377 185 -4 5 0 7 7 4 7 -2 33 22 58 56 25 33 50 65 55 72
13 16 57 82 84 129 12 21 20 42 16 48 -4 6 -1 9 5 8 7 -2 43 57 80 130 68 132
125 285 156 417 15 66 54 304 54 329 0 6 -16 -25 -35 -69 -19 -44 -49 -102
-65 -128 -17 -27 -30 -51 -30 -53 0 -5 -100 -155 -163 -244 -37 -54 -226 -244
-317 -321 -90 -77 -183 -141 -300 -208 -55 -32 -98 -60 -95 -62 2 -3 -4 -5
-13 -5 -9 -1 -24 -4 -32 -8 -12 -5 -16 2 -18 31 -3 49 -48 269 -65 319 -10 32
-10 53 1 119 17 98 11 275 -12 360 -24 88 -90 217 -147 285 -27 33 -83 88
-124 122 -64 53 -75 67 -75 94 0 17 -10 51 -23 76 l-23 46 73 7 74 7 29 58
c69 137 99 273 62 284 -14 5 -16 15 -14 51 4 42 8 49 46 72 54 33 106 83 106
101 0 17 -70 112 -82 112 -4 0 -8 29 -8 64 0 253 -220 438 -524 438 -151 0
-252 -35 -347 -120 -49 -44 -109 -144 -109 -182 0 -8 -9 -21 -19 -27 -11 -7
-32 -32 -46 -57 -29 -50 -27 -80 10 -120 21 -23 22 -30 13 -63 -6 -21 -8 -74
-6 -118 3 -63 10 -91 31 -130 23 -43 26 -57 19 -100 l-7 -50 -80 -6 c-45 -3
-90 -11 -102 -17 -12 -7 -24 -12 -26 -12 -2 0 -10 33 -17 73 -7 39 -32 137
-56 217 -114 386 -295 728 -588 1115 -123 162 -159 196 -257 244 -175 84 -431
121 -604 87z m400 -250 c126 -31 145 -44 232 -162 455 -618 684 -1072 695
-1379 l3 -80 -75 0 -75 0 -63 120 c-78 146 -182 305 -294 445 -87 109 -298
334 -329 350 -9 6 23 -44 73 -110 115 -153 230 -337 312 -499 66 -130 121
-261 108 -260 -4 0 -45 19 -92 43 l-85 42 -67 133 c-136 268 -359 602 -770
1149 -76 102 -138 188 -138 192 0 5 33 13 73 20 39 6 79 13 87 15 39 10 350
-5 405 -19z m1971 -593 c108 -36 179 -114 191 -211 5 -44 3 -51 -15 -61 -63
-33 -292 -21 -450 25 -68 20 -153 55 -170 69 -2 2 6 21 17 43 27 52 95 108
163 132 68 25 195 26 264 3z m14 -349 c30 -9 71 -24 91 -34 36 -19 139 -106
139 -119 0 -25 -611 81 -677 117 -13 8 -4 13 41 26 132 39 298 43 406 10z
m-592 -321 c22 -58 10 -62 -26 -8 -42 60 -50 163 -18 220 9 16 12 3 17 -70 4
-50 16 -113 27 -142z m260 152 c43 -20 85 -40 94 -45 12 -7 34 -6 65 0 50 12
62 5 64 -35 0 -13 4 -8 10 13 7 25 15 32 34 32 31 0 31 -2 40 -87 l7 -73 -65
0 c-112 0 -194 25 -256 78 -29 25 -60 61 -67 79 -14 33 -19 73 -8 73 3 0 40
-16 82 -35z m358 -101 c16 -23 21 -25 66 -19 l48 7 0 -35 c0 -61 -6 -67 -70
-67 l-59 0 -6 48 c-3 26 -7 57 -9 70 -4 29 10 28 30 -4z m-418 -22 c2 -7 -2
-10 -12 -6 -9 3 -16 11 -16 16 0 13 23 5 28 -10z m49 -64 c8 -6 12 -20 10 -30
-3 -10 -1 -18 4 -18 5 0 9 10 9 21 0 19 4 21 32 15 17 -3 34 -8 37 -11 7 -7
-28 -115 -38 -115 -26 0 -110 33 -115 45 -3 8 -8 38 -12 66 l-7 52 33 -7 c18
-3 39 -11 47 -18z m158 -34 c8 -4 22 -19 31 -35 18 -35 49 -38 113 -9 24 11
45 20 48 20 7 0 -2 -108 -10 -116 -6 -6 -179 11 -223 22 -22 6 -22 7 -7 52 8
26 16 53 19 60 4 14 6 14 29 6z m302 -41 c4 -11 -52 -63 -68 -63 -11 0 -11 7
-3 48 5 26 10 29 37 27 17 -1 33 -7 34 -12z m137 -30 c-9 -58 -16 -65 -75 -71
l-53 -5 25 31 c13 16 34 33 46 36 13 4 30 18 39 31 22 33 26 27 18 -22z m-577
-59 c22 -6 22 -7 6 -38 -25 -50 -35 -59 -44 -44 -5 7 -9 30 -9 51 0 38 6 42
47 31z m113 -44 c31 -33 61 -37 100 -15 23 13 100 21 100 10 0 -2 -9 -29 -21
-60 -20 -53 -39 -65 -39 -24 0 24 -2 24 -42 -1 -48 -29 -93 -26 -129 9 l-29
29 0 -24 c0 -26 -11 -30 -40 -14 -17 9 -17 13 13 65 18 30 38 54 45 55 8 0 27
-13 42 -30z m425 -22 c-4 -13 -17 -41 -29 -63 l-21 -40 -74 -3 -73 -3 16 23
c9 13 21 40 26 60 11 40 11 40 113 46 47 3 48 2 42 -20z m-791 -4 c36 -36 1
-122 -74 -183 -52 -41 -68 -31 -19 12 38 33 59 65 59 89 -1 9 -4 9 -13 -3 -7
-8 -25 -24 -41 -34 -29 -19 -29 -19 -40 -1 -6 11 -24 34 -40 53 -33 39 -29 47
30 68 53 19 119 19 138 -1z m124 -111 c60 -40 192 -162 192 -178 0 -6 -14 -19
-30 -30 -17 -11 -41 -35 -53 -52 -12 -18 -25 -33 -29 -33 -4 0 -14 15 -22 34
-23 54 -85 147 -128 192 -40 41 -40 42 -24 73 9 17 21 31 27 31 6 0 36 -17 67
-37z m-333 -18 c30 -29 34 -97 9 -133 -19 -28 -262 -172 -289 -172 -11 0 -103
16 -204 35 -204 38 -238 53 -267 117 -19 42 -9 83 23 95 9 3 104 -8 212 -26
108 -17 201 -31 208 -31 7 0 67 31 135 70 68 38 129 70 136 70 7 0 24 -11 37
-25z m798 -82 c22 -32 54 -130 45 -138 -2 -1 -35 -5 -75 -9 l-72 -7 29 58 c17
33 30 74 30 96 0 20 4 37 9 37 4 0 20 -17 34 -37z m-741 -150 c39 -36 15 -99
-52 -133 -49 -25 -48 -25 -43 4 3 13 0 27 -6 30 -9 6 -17 -28 -12 -56 0 -4
-35 -26 -80 -48 l-81 -41 -176 21 c-98 12 -189 26 -205 32 -33 13 -87 72 -87
97 0 10 9 26 19 35 18 16 25 17 98 2 43 -8 128 -23 189 -32 l111 -17 129 61
c137 65 167 72 196 45z m32 -166 c39 -29 15 -91 -46 -123 -35 -18 -37 -18 -31
6 3 11 0 20 -6 20 -6 0 -11 -11 -11 -25 0 -21 -12 -31 -72 -61 l-71 -36 -177
9 c-155 8 -181 12 -212 31 -39 25 -52 45 -43 73 10 30 39 32 219 14 l172 -17
119 60 c66 34 125 61 131 61 5 1 18 -5 28 -12z m2229 -167 c-7 -28 -13 -25
-13 6 0 14 4 23 9 20 5 -3 7 -15 4 -26z m-2198 10 c3 -5 -3 -10 -15 -10 -20 0
-53 -17 -149 -73 -28 -17 -31 -21 -17 -29 9 -5 16 -18 16 -28 0 -25 16 -26 29
-1 8 14 7 22 -5 31 -12 11 -6 18 46 46 64 36 77 39 99 25 12 -8 12 -13 -3 -35
-18 -29 -36 -34 -36 -11 0 8 -5 15 -11 15 -5 0 -8 -4 -5 -9 4 -5 3 -17 -1 -27
-6 -15 -8 -14 -16 7 l-10 24 -6 -29 c-4 -22 -19 -37 -56 -59 -50 -29 -50 -29
-186 -25 -121 4 -139 7 -167 27 -18 12 -32 31 -32 41 0 28 56 40 195 40 l120
1 80 43 c81 44 119 54 130 36z m2162 -152 c-3 -8 -6 -5 -6 6 -1 11 2 17 5 13
3 -3 4 -12 1 -19z m-2223 -49 c-55 -58 -116 -73 -179 -44 l-30 13 46 1 c53 1
119 22 158 50 37 27 40 16 5 -20z m2117 -2 c-10 -9 -11 -8 -5 6 3 10 9 15 12
12 3 -3 0 -11 -7 -18z m-21 -47 c0 -5 -5 -10 -11 -10 -5 0 -7 5 -4 10 3 6 8
10 11 10 2 0 4 -4 4 -10z m-2190 -86 c19 -28 45 -65 58 -82 20 -28 21 -33 8
-38 -29 -11 -45 5 -86 85 -22 44 -40 83 -40 87 0 17 29 -8 60 -52z m250 -93
c0 -19 -81 -80 -114 -86 -36 -7 -101 9 -112 27 -4 6 1 8 15 3 32 -10 125 13
163 40 36 26 48 30 48 16z m1855 -1 c3 -6 -1 -7 -9 -4 -18 7 -21 14 -7 14 6 0
13 -4 16 -10z m-84 -63 c-10 -9 -11 -8 -5 6 3 10 9 15 12 12 3 -3 0 -11 -7
-18z m-121 -91 c0 -2 -7 -6 -15 -10 -8 -3 -15 -1 -15 4 0 6 7 10 15 10 8 0 15
-2 15 -4z m-193 -162 c-3 -3 -12 -4 -19 -1 -8 3 -5 6 6 6 11 1 17 -2 13 -5z
m-126 -91 c13 -15 12 -15 -11 -3 -34 17 -36 20 -18 20 9 0 22 -7 29 -17z
m-114 -57 c0 -8 -6 -12 -15 -8 -11 4 -13 1 -7 -7 6 -10 3 -11 -14 -2 -11 7
-21 14 -21 17 0 3 4 2 10 -1 5 -3 18 -1 27 4 10 6 18 11 19 11 0 0 1 -6 1 -14z
m416 -51 c-3 -9 -8 -14 -10 -11 -3 3 -2 9 2 15 9 16 15 13 8 -4z m-596 -61
c-3 -3 -12 -4 -19 -1 -8 3 -5 6 6 6 11 1 17 -2 13 -5z m468 -22 c-3 -3 -11 0
-18 7 -9 10 -8 11 6 5 10 -3 15 -9 12 -12z m-606 -34 c0 -31 -1 -31 -10 -10
-5 13 -7 28 -3 33 10 16 14 9 13 -23z m-129 -116 c0 -5 -7 -17 -15 -28 -14
-19 -14 -19 -15 2 0 11 3 24 7 27 9 10 23 9 23 -1z m440 -12 c-8 -5 -22 -10
-30 -10 -13 0 -13 1 0 10 8 5 22 10 30 10 13 0 13 -1 0 -10z m-267 -77 c-7 -2
-19 -2 -25 0 -7 3 -2 5 12 5 14 0 19 -2 13 -5z m-110 -20 c-7 -2 -19 -2 -25 0
-7 3 -2 5 12 5 14 0 19 -2 13 -5z"/>
<path d="M3305 3730 c-17 -7 -16 -9 11 -9 17 -1 53 -4 80 -7 34 -4 44 -2 34 4
-23 15 -102 23 -125 12z"/>
<path d="M2542 3419 l-122 -70 22 -29 c12 -16 21 -43 21 -60 0 -36 10 -38 31
-8 20 28 20 57 1 78 -14 16 -8 21 69 69 94 57 115 58 138 3 l12 -27 4 27 c4
32 -11 64 -37 77 -14 8 -43 -5 -139 -60z"/>
<path d="M2620 3365 c0 -11 -3 -31 -7 -45 -6 -22 -5 -24 10 -11 19 15 22 38 7
61 -8 12 -10 12 -10 -5z"/>
<path d="M2020 3347 c0 -10 10 -28 23 -41 19 -19 50 -27 196 -50 95 -15 175
-26 177 -23 2 2 -4 11 -13 19 -12 11 -65 21 -168 32 -145 16 -150 17 -182 48
-26 25 -33 28 -33 15z"/>
<path d="M2577 3331 c-4 -19 -5 -36 -2 -39 10 -11 16 7 13 40 l-3 33 -8 -34z"/>
<path d="M2530 3310 c0 -25 4 -39 10 -35 6 3 10 19 10 35 0 16 -4 32 -10 35
-6 4 -10 -10 -10 -35z"/>
<path d="M2595 3198 c-55 -28 -102 -52 -104 -54 -1 -1 4 -13 13 -26 9 -12 16
-33 16 -45 0 -29 14 -29 34 -1 14 20 14 24 0 46 -9 13 -14 25 -12 26 2 2 36
20 77 40 81 41 110 43 127 8 17 -34 29 -8 14 29 -18 41 -46 37 -165 -23z"/>
<path d="M2630 3143 c0 -12 -3 -28 -6 -37 -3 -9 -1 -16 4 -16 16 0 24 37 13
57 -9 16 -10 16 -11 -4z"/>
<path d="M2097 3130 c3 -11 14 -25 25 -31 17 -9 285 -49 331 -49 19 0 19 2 7
14 -10 9 -65 18 -155 26 -142 12 -162 17 -185 44 -18 22 -29 20 -23 -4z"/>
<path d="M2591 3123 c-1 -12 -4 -30 -7 -40 -6 -17 -6 -17 11 -1 15 14 16 21 7
40 -11 23 -11 23 -11 1z"/>
<path d="M2648 3023 l-97 -46 19 -24 c11 -14 16 -31 13 -41 -6 -15 -5 -16 13
-2 31 24 34 33 17 52 -14 16 -10 20 57 53 41 19 78 35 84 35 5 0 20 -10 33
-22 22 -21 23 -21 23 -2 0 26 -19 44 -45 44 -11 0 -64 -21 -117 -47z"/>
<path d="M2680 2964 c0 -14 4 -23 10 -19 6 3 10 15 10 26 0 10 -4 19 -10 19
-5 0 -10 -12 -10 -26z"/>
<path d="M2648 2960 c-7 -24 -3 -38 8 -28 3 4 4 17 2 30 l-3 23 -7 -25z"/>
<path d="M2180 2961 c0 -22 38 -34 128 -42 53 -5 129 -11 167 -14 57 -5 68 -4
57 7 -8 8 -58 15 -152 19 -105 4 -145 10 -164 22 -29 19 -36 21 -36 8z"/>
<path d="M2730 2825 c0 -8 5 -15 10 -15 6 0 10 7 10 15 0 8 -4 15 -10 15 -5 0
-10 -7 -10 -15z"/>
<path d="M2340 2812 c0 -23 33 -30 163 -37 97 -5 137 -4 137 4 0 7 -41 11
-128 11 -99 0 -132 3 -150 16 -12 8 -22 11 -22 6z"/>
<path d="M3264 2300 c3 -8 26 -67 52 -130 37 -90 48 -131 52 -188 4 -60 2 -76
-13 -92 -10 -11 -24 -20 -31 -20 -6 0 -54 69 -105 154 -52 85 -95 154 -96 152
-2 -1 5 -27 15 -57 27 -78 45 -185 38 -221 -8 -38 -33 -68 -57 -68 -11 0 -38
29 -70 75 -28 42 -54 74 -56 72 -3 -3 14 -98 32 -174 5 -20 10 -21 84 -18 140
6 368 38 403 56 10 5 33 9 52 9 39 0 52 20 35 53 -34 64 -159 226 -244 313
-53 54 -94 92 -91 84z"/>
<path d="M5029 2194 c-131 -137 -420 -339 -616 -431 -55 -26 -72 -38 -62 -44
9 -7 5 -8 -12 -3 -16 3 -39 -1 -55 -9 -81 -41 -318 -108 -489 -137 -186 -32
-331 -43 -505 -37 -160 5 -163 4 -90 -8 41 -8 113 -14 160 -15 l85 -1 -50 -14
c-27 -8 -65 -14 -82 -15 -18 0 -33 -4 -33 -9 0 -6 15 -12 33 -14 28 -3 26 -4
-10 -5 -24 -1 -43 -6 -43 -12 0 -5 -18 -21 -40 -35 -34 -22 -39 -28 -30 -45
25 -46 16 -52 -67 -45 -43 3 -113 15 -157 25 -107 27 -118 24 -21 -6 210 -64
393 -89 645 -88 227 0 379 17 550 60 115 28 162 53 286 149 204 159 388 358
519 560 51 78 129 215 122 215 -2 0 -19 -16 -38 -36z m-56 -111 c-3 -7 -8 -13
-12 -13 -4 0 -8 6 -8 13 0 8 6 14 13 14 7 0 10 -6 7 -14z m-283 -223 c-8 -5
-19 -10 -25 -10 -5 0 -3 5 5 10 8 5 20 10 25 10 6 0 3 -5 -5 -10z m-215 -100
c3 -5 2 -10 -4 -10 -5 0 -13 5 -16 10 -3 6 -2 10 4 10 5 0 13 -4 16 -10z m-71
-48 c2 -4 -5 -9 -17 -9 -17 -2 -19 0 -7 7 18 12 18 12 24 2z m-517 -148 c-3
-3 -12 -4 -19 -1 -8 3 -5 6 6 6 11 1 17 -2 13 -5z m-57 -14 c-8 -5 -19 -10
-25 -10 -5 0 -3 5 5 10 8 5 20 10 25 10 6 0 3 -5 -5 -10z m-103 -16 c-3 -3
-12 -4 -19 -1 -8 3 -5 6 6 6 11 1 17 -2 13 -5z m-342 -64 c-3 -5 -11 -10 -16
-10 -6 0 -7 5 -4 10 3 6 11 10 16 10 6 0 7 -4 4 -10z m974 -43 c-2 -1 -13 -9
-24 -17 -19 -14 -19 -14 -6 3 7 9 18 17 24 17 6 0 8 -1 6 -3z m-209 -61 c0 -3
-4 -8 -10 -11 -5 -3 -10 -1 -10 4 0 6 5 11 10 11 6 0 10 -2 10 -4z m-780 -86
c8 -5 11 -10 5 -10 -5 0 -17 5 -25 10 -8 5 -10 10 -5 10 6 0 17 -5 25 -10z"/>
<path d="M1470 2064 c0 -6 7 -19 16 -30 14 -18 14 -18 3 6 -14 31 -19 36 -19
24z"/>
<path d="M1490 2005 c0 -5 10 -21 21 -35 13 -17 17 -18 10 -5 -17 33 -31 51
-31 40z"/>
<path d="M645 1960 c9 -30 13 -35 21 -27 3 3 -2 16 -11 29 l-17 23 7 -25z"/>
<path d="M1530 1924 c0 -8 5 -12 10 -9 6 4 8 11 5 16 -9 14 -15 11 -15 -7z"/>
<path d="M707 1827 c49 -92 167 -283 188 -302 6 -5 28 -32 50 -59 70 -88 147
-166 158 -159 5 3 7 2 4 -4 -9 -15 69 -87 84 -78 8 5 10 4 5 -4 -9 -13 47 -66
153 -144 280 -207 619 -361 960 -437 452 -100 959 -73 1391 74 91 31 154 54
140 51 -65 -13 -337 -16 -455 -6 -485 42 -874 189 -1252 474 -39 29 -58 37
-75 32 -18 -5 -20 -4 -8 4 12 9 6 19 -37 62 -29 28 -57 48 -63 44 -6 -4 -9 -3
-8 2 2 5 -14 28 -34 52 -34 39 -39 42 -55 30 -16 -13 -17 -12 -5 3 11 14 4 27
-54 97 -59 71 -69 79 -79 64 -7 -10 -11 -23 -8 -30 3 -7 0 -13 -6 -13 -15 0
-14 17 5 45 9 13 13 29 9 35 -9 15 -27 1 -21 -17 6 -16 -18 -12 -61 9 -26 13
-33 9 -36 -21 -1 -21 -3 -21 -329 -21 l-327 0 -4 43 -4 42 -1 -42 c-1 -24 -6
-43 -11 -43 -4 0 -6 12 -3 26 3 19 1 25 -6 20 -14 -8 -6 -89 8 -94 12 -4 3
-22 -11 -22 -5 0 -9 9 -9 20 0 11 -9 29 -21 41 -18 18 -19 25 -10 52 10 28 9
30 -3 14 -14 -18 -15 -18 -26 3 -15 29 -25 18 -10 -12 11 -22 11 -22 -9 2 -10
13 -17 29 -14 35 4 5 3 7 -1 3 -5 -4 -22 19 -38 50 -17 31 -34 59 -38 62 -4 3
-18 29 -31 58 -13 28 -28 52 -32 52 -5 0 13 -42 40 -93z m1079 -289 c4 -7 3
-8 -4 -4 -7 4 -12 0 -12 -10 0 -10 -3 -15 -6 -11 -7 6 2 37 10 37 3 0 8 -5 12
-12z m31 -29 c9 -9 8 -16 -3 -27 -11 -11 -18 -12 -27 -3 -8 8 -6 11 7 11 15 0
16 3 6 15 -14 17 0 21 17 4z m-797 -79 c0 8 3 11 6 7 3 -3 3 -10 0 -16 -8 -12
-36 -3 -36 11 0 6 6 5 15 -2 12 -10 15 -10 15 0z m760 1 c0 -6 -4 -13 -10 -16
-5 -3 -10 1 -10 9 0 9 5 16 10 16 6 0 10 -4 10 -9z m110 -16 c10 -12 10 -15
-4 -15 -9 0 -16 7 -16 15 0 8 2 15 4 15 2 0 9 -7 16 -15z m-25 -43 c-3 -3 -11
0 -18 7 -9 10 -8 11 6 5 10 -3 15 -9 12 -12z m-755 -6 c0 -2 -7 -7 -16 -10 -8
-3 -12 -2 -9 4 6 10 25 14 25 6z m860 -46 c0 -5 -5 -10 -11 -10 -5 0 -7 5 -4
10 3 6 8 10 11 10 2 0 4 -4 4 -10z m-30 -50 c0 -5 -4 -10 -10 -10 -5 0 -10 5
-10 10 0 6 5 10 10 10 6 0 10 -4 10 -10z m174 -49 c-2 -3 -12 3 -22 13 -16 17
-16 18 5 5 12 -7 20 -15 17 -18z m-134 -1 c0 -5 -2 -10 -4 -10 -3 0 -8 5 -11
10 -3 6 -1 10 4 10 6 0 11 -4 11 -10z m300 -114 c0 -2 -7 -7 -16 -10 -8 -3
-12 -2 -9 4 6 10 25 14 25 6z m-830 -66 c0 -5 -5 -10 -11 -10 -5 0 -7 5 -4 10
3 6 8 10 11 10 2 0 4 -4 4 -10z m1000 -50 c8 -5 11 -10 5 -10 -5 0 -17 5 -25
10 -8 5 -10 10 -5 10 6 0 17 -5 25 -10z m-848 -42 c-14 -7 -26 -8 -32 -2 -5 5
4 10 23 11 30 1 31 1 9 -9z m1008 -48 c-8 -5 -19 -10 -25 -10 -5 0 -3 5 5 10
8 5 20 10 25 10 6 0 3 -5 -5 -10z m477 -126 c-3 -3 -12 -4 -19 -1 -8 3 -5 6 6
6 11 1 17 -2 13 -5z m90 -10 c-3 -3 -12 -4 -19 -1 -8 3 -5 6 6 6 11 1 17 -2
13 -5z"/>
<path d="M1554 1885 c2 -15 11 -32 20 -37 16 -9 17 -8 0 24 -22 44 -23 45 -20
13z"/>
<path d="M3610 1860 c0 -5 4 -10 9 -10 6 0 13 5 16 10 3 6 -1 10 -9 10 -9 0
-16 -4 -16 -10z"/>
<path d="M1590 1822 c0 -4 16 -31 36 -60 20 -30 33 -57 29 -60 -3 -4 -10 0
-14 7 -7 11 -10 11 -14 0 -3 -8 -6 -3 -7 11 0 22 -2 23 -11 7 -14 -24 -3 -37
31 -33 18 2 31 -2 34 -11 3 -8 11 -11 16 -8 6 4 -1 21 -18 43 -16 20 -39 54
-51 75 -22 36 -31 45 -31 29z"/>
<path d="M1530 1800 c0 -5 5 -10 11 -10 5 0 7 5 4 10 -3 6 -8 10 -11 10 -2 0
-4 -4 -4 -10z"/>
<path d="M777 1768 c6 -7 13 -20 16 -28 4 -10 6 -8 6 6 1 12 -6 25 -15 28 -13
5 -14 3 -7 -6z"/>
<path d="M970 1670 c0 -19 7 -20 235 -20 150 0 235 4 235 10 0 6 -60 10 -160
10 -100 0 -160 4 -160 10 0 6 -32 10 -75 10 -68 0 -75 -2 -75 -20z"/>
<path d="M3435 1610 c-3 -6 1 -7 9 -4 18 7 21 14 7 14 -6 0 -13 -4 -16 -10z"/>
<path d="M2928 1563 c6 -2 18 -2 25 0 6 3 1 5 -13 5 -14 0 -19 -2 -12 -5z"/>
<path d="M3058 1543 c12 -2 30 -2 40 0 9 3 -1 5 -23 4 -22 0 -30 -2 -17 -4z"/>
<path d="M2480 1421 c0 -5 11 -12 25 -15 14 -4 23 -11 20 -16 -3 -6 1 -7 10
-4 19 8 19 7 -22 28 -18 9 -33 12 -33 7z"/>
<path d="M4542 1369 c-85 -40 -248 -98 -339 -120 -29 -7 -49 -17 -46 -22 3 -6
1 -7 -5 -3 -7 4 -50 0 -96 -8 -429 -81 -838 -56 -1240 76 -104 34 -124 37
-148 27 -41 -17 -44 -29 -6 -18 18 5 39 9 46 9 17 0 11 -22 -8 -28 -7 -3 -10
0 -6 7 4 6 2 11 -3 11 -6 0 -11 -7 -11 -16 0 -10 -6 -14 -15 -11 -8 4 -17 2
-20 -3 -4 -6 -26 -10 -51 -10 -35 0 -51 -6 -70 -25 -14 -14 -31 -25 -39 -25
-7 0 -16 -8 -18 -17 -4 -17 -5 -17 -6 0 -1 24 -31 22 -31 -2 0 -11 -4 -23 -10
-26 -23 -15 -5 -33 78 -77 231 -123 524 -214 802 -248 90 -11 102 -10 215 15
198 44 494 151 648 234 121 65 175 97 232 134 87 58 259 195 233 186 -2 0 -40
-18 -86 -40z m-1722 -123 c0 -3 -4 -8 -10 -11 -5 -3 -10 -1 -10 4 0 6 5 11 10
11 6 0 10 -2 10 -4z m70 -6 c-8 -5 -19 -10 -25 -10 -5 0 -3 5 5 10 8 5 20 10
25 10 6 0 3 -5 -5 -10z m1400 0 c0 -5 -4 -10 -10 -10 -5 0 -10 5 -10 10 0 6 5
10 10 10 6 0 10 -4 10 -10z m-1555 -20 c3 -5 1 -10 -4 -10 -6 0 -11 5 -11 10
0 6 2 10 4 10 3 0 8 -4 11 -10z m148 -7 c-7 -2 -19 -2 -25 0 -7 3 -2 5 12 5
14 0 19 -2 13 -5z m-433 -65 c0 -16 -3 -19 -11 -11 -6 6 -8 16 -5 22 11 17 16
13 16 -11z m765 12 c-11 -5 -27 -9 -35 -9 -9 0 -8 4 5 9 11 5 27 9 35 9 9 0 8
-4 -5 -9z m142 -16 c-3 -3 -12 -4 -19 -1 -8 3 -5 6 6 6 11 1 17 -2 13 -5z
m-867 -20 c0 -8 -19 -13 -24 -6 -3 5 1 9 9 9 8 0 15 -2 15 -3z m35 -14 c-3 -5
-11 -10 -16 -10 -6 0 -7 5 -4 10 3 6 11 10 16 10 6 0 7 -4 4 -10z m175 -80
c-8 -5 -19 -10 -25 -10 -5 0 -3 5 5 10 8 5 20 10 25 10 6 0 3 -5 -5 -10z m53
-7 c-7 -2 -19 -2 -25 0 -7 3 -2 5 12 5 14 0 19 -2 13 -5z m217 -73 c8 -5 11
-10 5 -10 -5 0 -17 5 -25 10 -8 5 -10 10 -5 10 6 0 17 -5 25 -10z m287 -76
c-3 -3 -12 -4 -19 -1 -8 3 -5 6 6 6 11 1 17 -2 13 -5z"/>
<path d="M2585 1366 c17 -14 37 -26 45 -26 13 0 13 -1 0 -10 -13 -9 -13 -10 0
-9 8 0 24 4 35 9 18 7 17 9 -10 19 -16 6 -41 17 -55 23 -44 21 -46 20 -15 -6z"/>
<path d="M3152 1370 c3 -9 -4 -20 -16 -27 -19 -11 -18 -12 17 -13 42 0 46 9
16 36 -16 14 -21 15 -17 4z"/>
<path d="M2955 1360 c-3 -6 1 -7 9 -4 18 7 21 14 7 14 -6 0 -13 -4 -16 -10z"/>
<path d="M3061 1360 c-19 -5 -41 -6 -50 -3 -14 4 -14 3 0 -6 10 -6 29 -7 55
-1 21 5 47 7 58 4 12 -4 16 -2 12 5 -8 12 -25 13 -75 1z"/>
<path d="M2146 1321 c27 -22 51 -37 53 -35 6 5 -20 34 -31 34 -5 0 -18 9 -30
20 -12 11 -26 20 -31 20 -5 0 13 -18 39 -39z"/>
<path d="M2568 1313 c7 -3 16 -2 19 1 4 3 -2 6 -13 5 -11 0 -14 -3 -6 -6z"/>
<path d="M2578 1293 c7 -3 16 -2 19 1 4 3 -2 6 -13 5 -11 0 -14 -3 -6 -6z"/>
<path d="M2235 1254 c45 -37 46 -37 109 -78 36 -23 56 -32 53 -22 -4 9 -2 16
3 16 6 0 10 9 10 21 0 15 -4 19 -16 15 -9 -3 -18 -6 -20 -6 -3 0 -2 -5 2 -11
4 -8 9 -7 15 2 6 10 9 10 9 2 0 -6 -5 -15 -10 -18 -13 -8 -42 14 -34 26 3 5
-1 6 -9 3 -8 -3 -18 0 -22 5 -3 6 -11 8 -17 5 -6 -4 -8 2 -3 17 4 17 4 20 -4
10 -8 -12 -15 -10 -45 12 -44 34 -61 35 -21 1z"/>
<path d="M2281 1271 c-8 -6 -9 -11 -3 -15 6 -3 14 -1 17 5 9 14 2 20 -14 10z"/>
</g>
</svg>
